<svg width="214" height="214" viewBox="0 0 214 214" fill="none" xmlns="http://www.w3.org/2000/svg">
<rect width="213.33" height="213.33" rx="16" fill="#111111"/>
<path d="M100.832 139.024C92.896 139.024 86.752 136.549 82.4 131.6C78.1333 126.651 76 119.397 76 109.84V74H92.256V108.304C92.256 113.765 93.3653 117.947 95.584 120.848C97.8027 123.749 101.301 125.2 106.08 125.2C110.603 125.2 114.315 123.579 117.216 120.336C120.203 117.093 121.696 112.571 121.696 106.768V74H138.08V137.488H123.616L122.336 126.736C120.373 130.491 117.515 133.477 113.76 135.696C110.091 137.915 105.781 139.024 100.832 139.024Z" fill="#F1F2F6"/>
</svg>
