<svg width="214" height="214" viewBox="0 0 214 214" fill="none" xmlns="http://www.w3.org/2000/svg">
<rect width="213.33" height="213.33" rx="16" fill="#111111"/>
<path d="M97 158.464C84.2165 158.464 74.3196 154.489 67.3093 146.537C60.4364 138.586 57 126.933 57 111.579V54H83.1856V109.111C83.1856 117.885 84.9725 124.602 88.5464 129.264C92.1203 133.925 97.756 136.255 105.454 136.255C112.739 136.255 118.718 133.651 123.392 128.441C128.203 123.232 130.608 115.966 130.608 106.643V54H157V155.997H133.701L131.639 138.723C128.478 144.755 123.873 149.553 117.825 153.118C111.914 156.682 104.973 158.464 97 158.464Z" fill="#F1F2F6"/>
</svg>
